# xmcd
#
# Track frame offsets: 
#        150
#        26746
#        52861
#        75572
#        94955
#        118049
#        140821
#        163173
#        189716
#
# Disc length: 3033 seconds
#
# Revision: 1
# Processed by: cddbd v1.5.2PL0 Copyright (c) Steve Scherf et al.
# Submitted via: ExactAudioCopyFreeDBPlugin 1.0
#
DISCID=7a0bd709
DTITLE=The B.B. and Q. Band - All Night Long
DYEAR=1982
DGENRE=Funk
TTITLE0=All Night Long (She's Got The Moves I Like)
TTITLE1=Imagination
TTITLE2=The Things We Do In Love
TTITLE3=Desire
TTITLE4=Hanging Out
TTITLE5=Hard To Get Around
TTITLE6=(I Could Never Say) It's Over
TTITLE7=Children Of The Night
TTITLE8=All Night Long (She's Got The Moves I Like) (Extended Version)
EXTD=
EXTT0=
EXTT1=
EXTT2=
EXTT3=
EXTT4=
EXTT5=
EXTT6=
EXTT7=
EXTT8=
PLAYORDER=
